<svg xmlns="http://www.w3.org/2000/svg" width="172.029" height="541.044" viewBox="0 0 172.029 541.044">
  <g id="Grupo_2" data-name="Grupo 2" transform="translate(-874 -1284.564)">
    <g id="Trazado_2" data-name="Trazado 2" transform="translate(1046.029 1804.677) rotate(180)" fill="none">
      <path d="M83.493,0h0s88.536,170.954,88.536,300.982S83.493,520.112,83.493,520.112h0S-1.061,427.169.01,300.982,83.493,0,83.493,0Z" stroke="none"/>
      <path d="M 83.69869232177734 11.62344360351563 C 81.51694488525391 16.51611328125 78.60841369628906 23.16006469726563 75.2064208984375 31.226318359375 C 68.17013549804688 47.90972900390625 57.54306793212891 74.21966552734375 46.87435150146484 104.81689453125 C 34.89385986328125 139.1763916015625 25.3062744140625 171.8205261230469 18.37806701660156 201.8424682617188 C 14.27313232421875 219.6302490234375 11.06964111328125 236.677734375 8.8565673828125 252.5115356445313 C 6.42999267578125 269.8732299804688 5.135787963867188 286.1952514648438 5.009857177734375 301.024169921875 C 4.88470458984375 315.7741088867188 5.96435546875 330.8326721191406 8.218780517578125 345.78173828125 C 10.27085876464844 359.3887329101563 13.34213256835938 373.21240234375 17.34742736816406 386.8685302734375 C 24.10614013671875 409.9129638671875 33.6153564453125 432.9144592285156 45.61099243164063 455.2341003417969 C 50.33156585693359 464.0174560546875 55.45320892333984 472.7148742675781 60.83370971679688 481.0848083496094 C 65.14170837402344 487.7863159179688 69.62435150146484 494.2941589355469 74.15713500976563 500.4274597167969 C 78.07483673095703 505.728515625 81.35874938964844 509.8365783691406 83.65029144287109 512.6050415039063 C 86.05023193359375 509.9349670410156 89.49129486083984 505.963134765625 93.60021209716797 500.8123779296875 C 98.35227966308594 494.8553161621094 103.055778503418 488.509033203125 107.5798492431641 481.9497375488281 C 113.2300720214844 473.7576599121094 118.6149291992188 465.2084655761719 123.5848541259766 456.5394592285156 C 136.2142791748047 434.5099487304688 146.2729187011719 411.583740234375 153.4813537597656 388.3977661132813 C 157.7538452148438 374.6550903320313 161.0597076416016 360.6663818359375 163.3071441650391 346.8201904296875 C 165.7769165039063 331.6039428710938 167.0292053222656 316.1816711425781 167.0292053222656 300.9817504882813 C 167.0292053222656 285.7215270996094 165.7675018310547 269.0569458007813 163.2789916992188 251.4509582519531 C 161.0094299316406 235.3934631347656 157.6695709228516 218.1979675292969 153.3522033691406 200.3421020507813 C 146.0635681152344 170.1973876953125 135.8934326171875 137.6504516601563 123.1242828369141 103.6053161621094 C 111.7473526000977 73.27218627929688 100.3726348876953 47.34722900390625 92.83377838134766 30.94024658203125 C 89.17911529541016 22.98654174804688 86.04813385009766 16.43984985351563 83.69869232177734 11.62344360351563 M 83.49299621582031 -6.103515625e-05 C 83.49299621582031 -6.103515625e-05 172.0292053222656 170.95361328125 172.0292053222656 300.9817504882813 C 172.0292053222656 431.0098266601563 83.49299621582031 520.1124877929688 83.49299621582031 520.1124877929688 C 83.49299621582031 520.1124877929688 -1.060928344726563 427.1687622070313 0.01007080078125 300.9817504882813 C 1.081069946289063 174.794677734375 83.49299621582031 -6.103515625e-05 83.49299621582031 -6.103515625e-05 Z" stroke="none" fill="#fff"/>
    </g>
    <line id="Línea_1" data-name="Línea 1" x2="135" transform="translate(891.5 1408.39)" fill="none" stroke="#fff" stroke-width="5"/>
    <g id="Elipse_1" data-name="Elipse 1" transform="translate(929.652 1471.428)" fill="none" stroke="#fff" stroke-width="5">
      <circle cx="29.998" cy="29.998" r="29.998" stroke="none"/>
      <circle cx="29.998" cy="29.998" r="27.498" fill="none"/>
    </g>
    <g id="Trazado_3" data-name="Trazado 3" transform="translate(984.506 1825.608) rotate(180)" fill="#1f4c73">
      <path d="M 23.85145378112793 144.2850189208984 C 21.6629810333252 141.5340881347656 17.75638961791992 136.2313995361328 13.90474605560303 129.0545959472656 C 10.53210067749023 122.7703628540039 7.859475135803223 116.2967529296875 5.961058616638184 109.813606262207 C 3.599079608917236 101.7474212646484 2.435558795928955 93.64148712158203 2.502787828445435 85.72093963623047 C 2.570787906646729 77.70732116699219 3.842183589935303 68.28423309326172 6.281641960144043 57.71344375610352 C 8.245600700378418 49.20302581787109 10.96457958221436 39.94594192504883 14.36305904388428 30.19931793212891 C 18.00140190124512 19.7647876739502 21.64956092834473 10.99619483947754 23.87505531311035 5.885040760040283 C 26.26586151123047 10.91377925872803 30.17976570129395 19.55648994445801 34.05945587158203 29.90346336364746 C 37.67761993408203 39.55290222167969 40.55847549438477 48.77444458007813 42.62199783325195 57.31192398071289 C 45.18368530273438 67.91053009033203 46.48257827758789 77.46157073974609 46.48257827758789 85.69973754882813 C 46.48257827758789 93.86019134521484 45.20532989501953 102.1131896972656 42.68632888793945 110.2294616699219 C 40.66284942626953 116.7490921020508 37.83766174316406 123.1980895996094 34.28924560546875 129.3972930908203 C 30.23614120483398 136.4782409667969 26.14218902587891 141.6272735595703 23.85145378112793 144.2850189208984 Z" stroke="none"/>
      <path d="M 23.97324180603027 12.0440673828125 C 21.90143775939941 17.03424072265625 19.31152153015137 23.60063934326172 16.72367858886719 31.02243041992188 C 13.35490417480469 40.683837890625 10.66127014160156 49.85313415527344 8.717609405517578 58.27561187744141 C 6.319042205810547 68.66924285888672 5.069156646728516 77.91033935546875 5.002677917480469 85.74217224121094 C 4.937767028808594 93.3890380859375 6.058883666992188 101.2221527099609 8.3348388671875 109.02392578125 C 10.17304229736328 115.3251113891602 12.76472473144531 121.6229248046875 16.0379524230957 127.7424774169922 C 18.88656616210938 133.0681915283203 21.76892280578613 137.3413543701172 23.92774963378906 140.2704620361328 C 26.18599510192871 137.4307861328125 29.20511054992676 133.2661590576172 32.19795227050781 128.0181579589844 C 35.63608551025391 121.9892883300781 38.37136077880859 115.7234039306641 40.3277473449707 109.3945465087891 C 42.75290679931641 101.5492248535156 43.98256301879883 93.57713317871094 43.98256301879883 85.69974517822266 C 43.98256301879883 77.66802215576172 42.7099723815918 68.32599639892578 40.20015716552734 57.93317413330078 C 38.16403961181641 49.501953125 35.3178596496582 40.38654327392578 31.74072265625 30.84017944335938 C 28.97944641113281 23.47116088867188 26.19985389709473 16.97224426269531 23.97324180603027 12.0440673828125 M 23.77331352233887 0 C 23.77331352233887 0 48.98256301879883 48.67631530761719 48.98256301879883 85.69974517822266 C 48.98256301879883 122.7231597900391 23.77331352233887 148.0937194824219 23.77331352233887 148.0937194824219 C 23.77331352233887 148.0937194824219 -0.302093505859375 121.6294708251953 0.00286102294921875 85.69974517822266 C 0.3078155517578125 49.76999664306641 23.77331352233887 0 23.77331352233887 0 Z" stroke="none" fill="#fff"/>
    </g>
    <g id="Trazado_4" data-name="Trazado 4" transform="translate(929.321 1758.007) rotate(180)" fill="#1f4c73">
      <path d="M 23.85145378112793 144.2850189208984 C 21.6629810333252 141.5340881347656 17.75638961791992 136.2313995361328 13.90474605560303 129.0545959472656 C 10.53210067749023 122.7703628540039 7.859475135803223 116.2967529296875 5.961058616638184 109.813606262207 C 3.599079608917236 101.7474212646484 2.435558795928955 93.64148712158203 2.502787828445435 85.72093963623047 C 2.570787906646729 77.70732116699219 3.842183589935303 68.28423309326172 6.281641960144043 57.71344375610352 C 8.245600700378418 49.20302581787109 10.96457958221436 39.94594192504883 14.36305904388428 30.19931793212891 C 18.00140190124512 19.7647876739502 21.64956092834473 10.99619483947754 23.87505531311035 5.885040760040283 C 26.26586151123047 10.91377925872803 30.17976570129395 19.55648994445801 34.05945587158203 29.90346336364746 C 37.67761993408203 39.55290222167969 40.55847549438477 48.77444458007813 42.62199783325195 57.31192398071289 C 45.18368530273438 67.91053009033203 46.48257827758789 77.46157073974609 46.48257827758789 85.69973754882813 C 46.48257827758789 93.86019134521484 45.20532989501953 102.1131896972656 42.68632888793945 110.2294616699219 C 40.66284942626953 116.7490921020508 37.83766174316406 123.1980895996094 34.28924560546875 129.3972930908203 C 30.23614120483398 136.4782409667969 26.14218902587891 141.6272735595703 23.85145378112793 144.2850189208984 Z" stroke="none"/>
      <path d="M 23.97324180603027 12.0440673828125 C 21.90143775939941 17.03424072265625 19.31152153015137 23.60063934326172 16.72367858886719 31.02243041992188 C 13.35490417480469 40.683837890625 10.66127014160156 49.85313415527344 8.717609405517578 58.27561187744141 C 6.319042205810547 68.66924285888672 5.069156646728516 77.91033935546875 5.002677917480469 85.74217224121094 C 4.937767028808594 93.3890380859375 6.058883666992188 101.2221527099609 8.3348388671875 109.02392578125 C 10.17304229736328 115.3251113891602 12.76472473144531 121.6229248046875 16.0379524230957 127.7424774169922 C 18.88656616210938 133.0681915283203 21.76892280578613 137.3413543701172 23.92774963378906 140.2704620361328 C 26.18599510192871 137.4307861328125 29.20511054992676 133.2661590576172 32.19795227050781 128.0181579589844 C 35.63608551025391 121.9892883300781 38.37136077880859 115.7234039306641 40.3277473449707 109.3945465087891 C 42.75290679931641 101.5492248535156 43.98256301879883 93.57713317871094 43.98256301879883 85.69974517822266 C 43.98256301879883 77.66802215576172 42.7099723815918 68.32599639892578 40.20015716552734 57.93317413330078 C 38.16403961181641 49.501953125 35.3178596496582 40.38654327392578 31.74072265625 30.84017944335938 C 28.97944641113281 23.47116088867188 26.19985389709473 16.97224426269531 23.97324180603027 12.0440673828125 M 23.77331352233887 0 C 23.77331352233887 0 48.98256301879883 48.67631530761719 48.98256301879883 85.69974517822266 C 48.98256301879883 122.7231597900391 23.77331352233887 148.0937194824219 23.77331352233887 148.0937194824219 C 23.77331352233887 148.0937194824219 -0.302093505859375 121.6294708251953 0.00286102294921875 85.69974517822266 C 0.3078155517578125 49.76999664306641 23.77331352233887 0 23.77331352233887 0 Z" stroke="none" fill="#fff"/>
    </g>
    <g id="Trazado_5" data-name="Trazado 5" transform="translate(1039.69 1758.007) rotate(180)" fill="#1f4c73">
      <path d="M 23.85145378112793 144.2850189208984 C 21.6629810333252 141.5340881347656 17.75638961791992 136.2313995361328 13.90474605560303 129.0545959472656 C 10.53210067749023 122.7703628540039 7.859475135803223 116.2967529296875 5.961058616638184 109.813606262207 C 3.599079608917236 101.7474212646484 2.435558795928955 93.64148712158203 2.502787828445435 85.72093963623047 C 2.570787906646729 77.70732116699219 3.842183589935303 68.28423309326172 6.281641960144043 57.71344375610352 C 8.245600700378418 49.20302581787109 10.96457958221436 39.94594192504883 14.36305904388428 30.19931793212891 C 18.00140190124512 19.7647876739502 21.64956092834473 10.99619483947754 23.87505531311035 5.885040760040283 C 26.26586151123047 10.91377925872803 30.17976570129395 19.55648994445801 34.05945587158203 29.90346336364746 C 37.67761993408203 39.55290222167969 40.55847549438477 48.77444458007813 42.62199783325195 57.31192398071289 C 45.18368530273438 67.91053009033203 46.48257827758789 77.46157073974609 46.48257827758789 85.69973754882813 C 46.48257827758789 93.86019134521484 45.20532989501953 102.1131896972656 42.68632888793945 110.2294616699219 C 40.66284942626953 116.7490921020508 37.83766174316406 123.1980895996094 34.28924560546875 129.3972930908203 C 30.23614120483398 136.4782409667969 26.14218902587891 141.6272735595703 23.85145378112793 144.2850189208984 Z" stroke="none"/>
      <path d="M 23.97324180603027 12.0440673828125 C 21.90143775939941 17.03424072265625 19.31152153015137 23.60063934326172 16.72367858886719 31.02243041992188 C 13.35490417480469 40.683837890625 10.66127014160156 49.85313415527344 8.717609405517578 58.27561187744141 C 6.319042205810547 68.66924285888672 5.069156646728516 77.91033935546875 5.002677917480469 85.74217224121094 C 4.937767028808594 93.3890380859375 6.058883666992188 101.2221527099609 8.3348388671875 109.02392578125 C 10.17304229736328 115.3251113891602 12.76472473144531 121.6229248046875 16.0379524230957 127.7424774169922 C 18.88656616210938 133.0681915283203 21.76892280578613 137.3413543701172 23.92774963378906 140.2704620361328 C 26.18599510192871 137.4307861328125 29.20511054992676 133.2661590576172 32.19795227050781 128.0181579589844 C 35.63608551025391 121.9892883300781 38.37136077880859 115.7234039306641 40.3277473449707 109.3945465087891 C 42.75290679931641 101.5492248535156 43.98256301879883 93.57713317871094 43.98256301879883 85.69974517822266 C 43.98256301879883 77.66802215576172 42.7099723815918 68.32599639892578 40.20015716552734 57.93317413330078 C 38.16403961181641 49.501953125 35.3178596496582 40.38654327392578 31.74072265625 30.84017944335938 C 28.97944641113281 23.47116088867188 26.19985389709473 16.97224426269531 23.97324180603027 12.0440673828125 M 23.77331352233887 0 C 23.77331352233887 0 48.98256301879883 48.67631530761719 48.98256301879883 85.69974517822266 C 48.98256301879883 122.7231597900391 23.77331352233887 148.0937194824219 23.77331352233887 148.0937194824219 C 23.77331352233887 148.0937194824219 -0.302093505859375 121.6294708251953 0.00286102294921875 85.69974517822266 C 0.3078155517578125 49.76999664306641 23.77331352233887 0 23.77331352233887 0 Z" stroke="none" fill="#fff"/>
    </g>
  </g>
</svg>
